<svg viewBox="0 0 319 46" fill="none" xmlns="http://www.w3.org/2000/svg"><title>Logo of Unravel URL</title><path d="M27.616 45.768c-6.059 0-11.072-.832-15.04-2.496-3.968-1.707-6.933-4.181-8.896-7.424C1.717 32.563.736 28.552.736 23.816V.968h15.808v22.144c0 3.67.96 6.528 2.88 8.576 1.963 2.048 4.693 3.072 8.192 3.072 3.541 0 6.272-1.024 8.192-3.072 1.963-2.048 2.944-4.907 2.944-8.576V.968H54.56v22.848c0 4.736-.981 8.747-2.944 12.032-1.963 3.243-4.95 5.717-8.96 7.424-3.968 1.664-8.981 2.496-15.04 2.496ZM62.96 45V.968h11.456l5.953 13.76c.17.47.383.981.64 1.536.255.555.511 1.13.767 1.728.257.597.47 1.173.64 1.728h.32V.968H94.32V45H82.865l-6.272-14.208a62.475 62.475 0 0 1-.96-2.56 42.753 42.753 0 0 0-.832-2.496h-.32c.042.853.064 1.728.064 2.624V45H62.96ZM103.983 45V.968h38.145c3.285 0 6.015.683 8.191 2.048 2.219 1.365 3.883 3.157 4.992 5.376 1.11 2.219 1.664 4.608 1.664 7.168 0 2.944-.661 5.568-1.984 7.872-1.28 2.261-3.178 4.075-5.695 5.44L157.999 45h-17.856l-6.656-13.76h-13.696V45h-15.808Zm15.808-24.704h16.768c1.195 0 2.198-.363 3.009-1.088.81-.768 1.216-1.813 1.216-3.136 0-.896-.193-1.643-.577-2.24-.384-.64-.895-1.11-1.535-1.408-.598-.341-1.302-.512-2.113-.512h-16.768v8.384ZM160.391 45 170.694.968h16.384L197.383 45h-12.865l-1.088-6.4h-9.472l-1.024 6.4h-12.543Zm15.295-16.192h6.08l-1.472-9.216c-.085-.427-.17-.96-.256-1.6a53.389 53.389 0 0 0-.319-2.176c-.128-.81-.256-1.6-.384-2.368a96.582 96.582 0 0 1-.321-2.176h-.576c-.085.81-.213 1.728-.383 2.752a71.198 71.198 0 0 1-.448 2.944 30.063 30.063 0 0 1-.449 2.624l-1.472 9.216ZM206.28 45 197.128.968h12.928l3.201 22.016c.127.725.256 1.621.384 2.688l.384 3.2c.17 1.067.298 2.027.383 2.88h.576c.086-.81.193-1.75.321-2.816l.383-3.2c.128-1.067.256-1.984.384-2.752L219.336.968h12.544L222.664 45H206.28ZM237.115 45V.968h27.967v10.176h-15.743v6.464h13.183V27.72h-13.183v7.104h16.063V45h-28.287ZM274.401 45V.968h15.808v31.936h28.544V45h-44.352Z" fill="currentColor"/></svg>
